# xmcd
#
# Track frame offsets:
#	150
#	18170
#	38805
#	51840
#	67070
#	82327
#	97945
#	117755
#	134415
#	147605
#	171465
#	187965
#	205320
#	219305
#
# Disc length: 3134 seconds
#
# Revision: 1
# Processed by: cddbd v1.5.1PL0 Copyright (c) Steve Scherf et al.
# Submitted via: EasyCDDAExtractor 7.5.2.1
#
DISCID=d10c3c0e
DTITLE=Francisco Petronio - Lembrancas
DYEAR=1900
DGENRE=Country
TTITLE0=Eu Sei Que Vou Te Amar
TTITLE1=Nossos Momentos
TTITLE2=Ninguem Me Ama
TTITLE3=Segredo 
TTITLE4=Nunca
TTITLE5=Pensando Em Ti
TTITLE6=Lembrancas
TTITLE7=Matriz Ou Filial
TTITLE8=Que Queres Tu De Mim
TTITLE9=Nono Mandamento
TTITLE10=Que Sera...
TTITLE11=Castigo
TTITLE12=Sentimetal Demais
TTITLE13=A Volta Do Boemio
EXTD=
EXTT0=
EXTT1=
EXTT2=
EXTT3=
EXTT4=
EXTT5=
EXTT6=
EXTT7=
EXTT8=
EXTT9=
EXTT10=
EXTT11=
EXTT12=
EXTT13=
PLAYORDER=
